<?xml version="1.0" standalone="no"?>
<!DOCTYPE svg PUBLIC "-//W3C//DTD SVG 20010904//EN"
 "http://www.w3.org/TR/2001/REC-SVG-20010904/DTD/svg10.dtd">
<svg version="1.0" xmlns="http://www.w3.org/2000/svg"
 width="700.000000pt" height="700.000000pt" viewBox="0 0 700.000000 700.000000"
 preserveAspectRatio="xMidYMid meet">
<metadata>
Created by potrace 1.11, written by Peter Selinger 2001-2013
</metadata>
<g transform="translate(0.000000,700.000000) scale(0.100000,-0.100000)"
fill="#000000" stroke="none">
<path d="M3310 6994 c-310 -27 -456 -50 -688 -110 -583 -150 -1114 -450 -1565
-883 -83 -79 -266 -288 -346 -395 -392 -522 -618 -1097 -693 -1761 -7 -60 -12
-216 -12 -345 0 -333 29 -564 110 -878 175 -680 556 -1293 1092 -1761 544
-474 1203 -759 1947 -843 142 -16 548 -16 690 0 812 92 1512 419 2098 981 83
79 266 288 346 395 392 522 618 1097 693 1761 7 61 12 216 12 345 0 129 -5
285 -12 345 -92 812 -419 1512 -981 2098 -79 83 -288 266 -395 346 -510 383
-1079 611 -1707 686 -129 15 -496 27 -589 19z m545 -320 c517 -55 1052 -257
1475 -557 757 -536 1238 -1345 1346 -2262 21 -186 21 -524 0 -710 -175 -1487
-1334 -2646 -2821 -2821 -88 -10 -219 -16 -355 -16 -136 0 -267 6 -355 16
-1487 175 -2646 1334 -2821 2821 -21 186 -21 524 0 710 182 1551 1438 2741
2991 2835 160 9 355 4 540 -16z"/>
<path d="M3945 5503 c-67 -8 -230 -46 -303 -69 -133 -44 -234 -91 -754 -356
-321 -163 -518 -258 -536 -258 -50 0 -54 14 -46 168 8 166 -3 211 -73 291
-111 127 -287 137 -413 24 -99 -89 -148 -261 -122 -430 25 -166 140 -335 306
-451 l80 -57 -159 -37 c-88 -21 -189 -45 -224 -53 -80 -19 -109 -37 -127 -81
-12 -28 -12 -43 -3 -77 22 -84 179 -193 321 -224 78 -17 245 -21 413 -10 62 4
92 4 79 -2 -40 -18 -137 -83 -198 -135 l-62 -53 -48 43 c-26 24 -77 58 -113
76 -57 28 -77 33 -143 33 -61 0 -85 -5 -125 -25 -62 -32 -99 -93 -91 -153 6
-50 29 -75 83 -89 66 -16 80 -41 88 -155 6 -95 -5 -342 -25 -528 -5 -49 -14
-159 -20 -243 -6 -85 -17 -199 -25 -255 -36 -249 -1 -484 86 -590 50 -61 100
-82 194 -81 95 0 153 15 196 51 52 44 62 81 67 250 l4 153 57 -48 c89 -77 220
-174 320 -238 51 -32 116 -77 145 -99 112 -89 215 -128 336 -128 64 -1 85 4
142 32 115 55 191 173 205 318 3 35 8 63 10 63 2 0 50 -39 106 -86 56 -48 136
-109 177 -136 153 -101 372 -192 578 -239 113 -26 329 -36 414 -19 156 30 296
131 337 243 40 110 43 167 38 840 -4 599 -6 648 -25 737 -40 186 -108 318
-226 435 -71 71 -135 111 -208 131 -83 22 -217 28 -294 14 -90 -16 -252 -94
-329 -159 -33 -28 -63 -51 -66 -51 -4 0 -18 18 -32 39 -15 22 -54 59 -88 82
-149 101 -294 106 -386 14 -40 -40 -43 -46 -43 -98 0 -49 3 -58 29 -80 16 -13
47 -27 69 -30 52 -9 63 -25 69 -102 6 -68 -12 -425 -28 -560 -28 -234 -18
-335 44 -449 58 -105 142 -144 275 -125 73 10 136 41 164 80 34 45 43 153 30
369 -7 107 -15 261 -18 341 l-7 146 34 23 c19 13 84 72 145 131 117 115 148
132 189 105 20 -13 25 -25 25 -59 4 -352 -3 -1181 -10 -1258 -12 -139 -17
-144 -148 -143 -65 1 -124 8 -179 23 -91 23 -330 113 -519 193 l-121 51 -6 91
c-4 50 -9 242 -12 426 -4 184 -10 374 -16 421 -30 275 -196 496 -424 564 l-40
12 90 17 c159 29 416 65 585 82 212 21 738 15 895 -10 140 -23 303 -61 366
-87 41 -17 76 -23 146 -23 86 -1 94 1 135 29 128 90 165 286 77 415 -37 53
-118 122 -194 165 -30 18 -58 34 -61 38 -4 3 6 27 20 52 48 81 55 114 45 199
-25 197 -172 381 -395 494 -202 102 -522 161 -729 135z m192 -334 c36 -13 83
-58 83 -79 0 -29 -50 -65 -285 -211 l-230 -142 -115 -13 c-195 -22 -407 -58
-588 -99 -39 -9 -77 -15 -83 -13 -12 4 192 159 321 245 256 169 492 280 665
312 70 13 198 13 232 0z m-1287 -1629 c13 -24 16 -119 13 -349 l-3 -163 -37
35 c-47 46 -133 92 -208 112 -89 23 -246 18 -337 -11 -16 -5 -18 2 -18 59 l0
64 53 6 c89 9 175 55 309 164 103 84 136 103 180 103 27 0 40 -5 48 -20z
m-525 -625 c53 -22 142 -111 200 -200 61 -94 111 -141 160 -151 40 -7 140 -1
168 11 15 6 17 0 16 -66 -1 -102 -13 -179 -30 -190 -8 -6 -56 -8 -109 -6 -92
5 -155 20 -397 93 l-83 25 0 250 c0 244 0 249 20 249 11 0 36 -7 55 -15z"/>
</g>
</svg>
