<?xml version="1.0" standalone="no"?>
<!DOCTYPE svg PUBLIC "-//W3C//DTD SVG 20010904//EN"
 "http://www.w3.org/TR/2001/REC-SVG-20010904/DTD/svg10.dtd">
<svg version="1.0" xmlns="http://www.w3.org/2000/svg"
 width="16.000000pt" height="16.000000pt" viewBox="0 0 16.000000 16.000000"
 preserveAspectRatio="xMidYMid meet">
<metadata>
Created by potrace 1.11, written by Peter Selinger 2001-2013
</metadata>
<g transform="translate(0.000000,16.000000) scale(0.002286,-0.002286)"
fill="#000000" stroke="none">
<path d="M3899 6069 c-2 -160 -91 -313 -255 -440 -28 -21 -53 -39 -56 -39 -4
0 -23 35 -44 78 -35 72 -118 207 -132 216 -4 2 -7 -39 -8 -93 0 -89 -3 -101
-33 -158 -38 -73 -128 -161 -221 -216 -57 -34 -200 -80 -320 -103 -164 -32
-503 -156 -650 -238 -19 -11 -59 -32 -89 -48 -64 -35 -228 -146 -290 -197
-200 -161 -367 -371 -464 -581 -33 -71 -80 -207 -92 -267 -27 -129 -37 -207
-41 -327 -4 -127 -6 -139 -26 -156 -17 -14 -22 -27 -21 -61 1 -38 25 -174 39
-220 4 -14 -11 -16 -113 -16 -65 0 -129 -2 -143 -5 -327 -72 -512 -243 -569
-524 -22 -107 -20 -266 4 -374 4 -14 8 -36 11 -50 29 -147 132 -310 245 -387
181 -124 450 -153 735 -79 80 21 89 20 101 -6 42 -93 245 -305 400 -420 76
-57 285 -188 298 -188 2 0 42 -18 88 -39 91 -43 221 -93 305 -116 182 -52 182
-51 242 -61 19 -3 51 -9 70 -14 19 -5 53 -11 75 -15 23 -3 51 -7 64 -10 100
-19 326 -32 536 -29 246 2 322 8 545 46 138 22 231 45 360 85 47 15 87 27 90
28 3 1 12 5 20 8 8 3 45 17 82 31 75 28 340 163 366 186 9 9 35 27 57 40 157
96 403 344 474 478 9 17 16 20 30 13 10 -6 29 -12 42 -15 13 -2 56 -12 94 -22
102 -26 377 -26 460 -1 264 80 420 266 473 562 8 48 9 280 0 315 -3 14 -9 43
-13 65 -11 63 -77 195 -125 250 -98 114 -242 193 -400 220 -19 3 -42 8 -52 11
-9 3 -62 5 -117 6 -56 1 -101 6 -101 10 0 5 11 54 25 108 l25 99 -22 38 c-12
21 -29 43 -37 49 -12 9 -16 37 -17 116 -12 654 -359 1158 -1017 1480 -149 73
-279 122 -472 180 -55 16 -104 33 -108 37 -4 4 -3 21 3 37 20 52 23 192 6 274
-18 86 -87 231 -146 310 -44 58 -123 146 -152 169 -17 12 -18 10 -19 -30z"/>
</g>
</svg>
