<svg width="30" height="510" viewBox="0 0 30 510" xmlns="http://www.w3.org/2000/svg" xmlns:xlink="http://www.w3.org/1999/xlink"><view viewBox="0 0 30 30"/><svg width="30" height="30" viewBox="-10 -10 30 30"><path fill="#FFB502" stroke="#FFF" stroke-width=".7" stroke-miterlimit="10" d="M5 .5C7.475.5 9.5 2.524 9.5 5c0 2.475-2.025 4.5-4.5 4.5A4.513 4.513 0 0 1 .5 5C.5 2.524 2.524.5 5 .5"/><path fill="#FFF" d="M7.41 3.156h.03-.876L5 6.286l-1.564-3.13H2.56l.25.626 1.877 3.755h.626L7.19 3.782h.033"/></svg><view viewBox="0 30 30 30"/><svg width="30" height="30" viewBox="-10 -10 30 30" y="30"><path fill="#00A4FF" stroke="#FFF" stroke-width=".7" stroke-miterlimit="10" d="M5 .5C7.475.5 9.5 2.525 9.5 5c0 2.474-2.026 4.5-4.5 4.5S.5 7.475.5 5 2.525.5 5 .5"/><path fill="#FFF" d="M7.49 3.094h.032-.905L5 6.328 3.383 3.094h-.905l.258.647 1.94 3.88h.647l1.94-3.88h.033"/></svg><view viewBox="0 60 30 30"/><svg width="30" height="30" viewBox="-10 -10 30 30" y="60"><path fill="#ED3714" stroke="#FFF" stroke-width=".7" stroke-miterlimit="10" d="M5 .5C7.475.5 9.5 2.525 9.5 5c0 2.476-2.025 4.5-4.5 4.5S.5 7.476.5 5C.5 2.525 2.525.5 5 .5"/><path fill="#FFF" d="M7.92 4.058H5.993L4.967 1.844l-.993 2.214H2.08l1.412 1.57-.45 2.183L7.92 4.06zm-3.497.61L5 3.51l.545 1.155h.417L4.07 6.207l.16-.642-.64-.898h.833zM5.16 6.88l2.02.93-.512-2.213L5.16 6.88z"/></svg><view viewBox="0 90 30 30"/><svg width="30" height="30" viewBox="-10 -10 30 30" y="90"><path fill="#FD5093" stroke="#FFF" stroke-width=".7" stroke-miterlimit="10" d="M5 .5C7.475.5 9.5 2.525 9.5 5S7.475 9.5 5 9.5.5 7.475.5 5 2.525.5 5 .5"/><path fill="#FFF" d="M7.47 4.125V2.56c-1.473.154-2.116 3.683-2.116 3.683H4.71s-.707-3.53-2.18-3.682v1.566s.736 1.687 1.534 2.117v.584H3.45l-.306.306v.307h.675l.306-.307h1.84l.308.307h.613v-.307l-.306-.307h-.583v-.583c.768-.4 1.473-2.118 1.473-2.118z"/></svg><view viewBox="0 120 30 30"/><svg width="30" height="30" viewBox="-10 -10 30 30" y="120"><path fill="#77C2F9" d="M5 0a5 5 0 1 1-.001 10.001A5 5 0 0 1 5 0z"/><path fill="#FFF" d="M7.363 2.345H5.898a.292.292 0 0 0-.293.293c0 .162.13.293.293.293h.763l-.82.82a2.167 2.167 0 0 0-1.32-.45 2.177 2.177 0 1 0 2.178 2.178c0-.493-.167-.947-.442-1.31l.814-.816v.75c0 .162.13.293.293.293s.293-.13.293-.293V2.638a.295.295 0 0 0-.293-.293m-2.85 4.642a1.512 1.512 0 1 1 1.51-1.513c0 .836-.676 1.513-1.512 1.513"/></svg><view viewBox="0 150 30 30"/><svg width="30" height="30" viewBox="-10 -10 30 30" y="150"><path fill="#F880AB" d="M5 0a5 5 0 1 1-.001 10.001A5 5 0 0 1 5 0z"/><path fill="#FFF" d="M5.507 2.322a2.178 2.178 0 0 0-2.178 2.177c0 .48.157.923.422 1.284l-.31.31-.57-.572s-.23-.23-.458 0c-.23.228 0 .457 0 .457l.572.57-.572.572.457.457.573-.573.57.572s.23.227.458 0c.23-.23 0-.458 0-.458L3.9 6.55l.307-.307A2.175 2.175 0 0 0 7.684 4.5a2.178 2.178 0 0 0-2.177-2.178m-.023 3.693a1.507 1.507 0 1 1-.003-3.013 1.507 1.507 0 0 1 .004 3.013"/></svg><view viewBox="0 180 30 30"/><svg width="30" height="30" viewBox="-10 -10 30 30" y="180"><path fill="#FDB713" d="M7.143 1.438c-.237.235-.55.47-.866.682.628-.85.628-2.113-1.264-2.12-1.92.007-1.916 1.283-1.272 2.13a5.936 5.936 0 0 1-.883-.692C.714 1.438 0 3.578 0 4.292 0 6.432 1.428 7.86 1.428 7.86v.714L2.143 10h5.715l.714-1.427V7.86S10 6.43 10 4.29c0-.712-.715-2.852-2.857-2.852"/><path fill="#FDE253" d="M2.142 9.28h5.715v-.715H2.142v.715m2.864-6.822c.675 0 1.895-1.748 0-1.748-1.92 0-.675 1.748 0 1.748m2.137-.313C6.428 3.215 5.006 3.23 5.006 3.23s-1.435-.014-2.15-1.085C1.167 2.642.715 3.57.715 4.643a2.84 2.84 0 0 0 1.428 2.5v.714h5.714v-.715s1.428-.714 1.428-2.5c0-1.07-.45-2-2.14-2.497"/><linearGradient id="a" gradientUnits="userSpaceOnUse" x1="-3.44" y1="792.106" x2="-3.44" y2="795.941" gradientTransform="translate(8.44 -788.746)"><stop offset="0" stop-color="#E82208" stop-opacity=".9"/><stop offset="1" stop-color="#CC1108" stop-opacity=".9"/></linearGradient><path fill="url(#a)" d="M1.434 4.63C1.457 5.836 3.22 7.14 3.22 7.14h1.07V3.574c-.714 0-1.45-.513-1.45-.513s-1.43.367-1.406 1.57m5.714-1.57s-.357.513-1.428.513V7.14h1.07s1.752-1.293 1.775-2.497C8.588 3.438 7.148 3.06 7.148 3.06"/><linearGradient id="b" gradientUnits="userSpaceOnUse" x1="-3.44" y1="791.805" x2="-3.44" y2="795.886" gradientTransform="translate(8.44 -788.746)"><stop offset="0" stop-color="#E82208" stop-opacity=".8"/><stop offset="1" stop-color="#CC1108"/></linearGradient><path fill="url(#b)" stroke="#C62B1A" stroke-width=".75" stroke-miterlimit="10" d="M1.434 4.63C1.457 5.836 3.22 7.14 3.22 7.14h1.07V3.574c-.714 0-1.45-.513-1.45-.513s-1.43.367-1.406 1.57zm5.714-1.57s-.357.513-1.428.513V7.14h1.07s1.752-1.293 1.775-2.497C8.588 3.438 7.148 3.06 7.148 3.06z"/></svg><view viewBox="0 210 30 30"/><svg width="30" height="30" viewBox="-10 -10 30 30" y="210"><path fill="#969696" d="M7.143 1.437c-.236.234-.55.472-.866.683.628-.848.628-2.115-1.264-2.12C3.095.008 3.098 1.284 3.74 2.13a5.999 5.999 0 0 1-.884-.692C.714 1.438 0 3.578 0 4.29c0 2.143 1.43 3.57 1.43 3.57v.715L2.142 10h5.715l.714-1.425V7.86S10 6.43 10 4.29c0-.713-.715-2.853-2.857-2.853"/><path fill="#FEFEFE" d="M2.143 9.28h5.715v-.714H2.143v.715m2.863-6.823c.675 0 1.893-1.747 0-1.747-1.92 0-.675 1.747 0 1.747m2.137-.314c-.714 1.07-2.137 1.084-2.137 1.084s-1.435-.012-2.15-1.084C1.167 2.64.715 3.57.715 4.643a2.84 2.84 0 0 0 1.428 2.5v.715h5.715v-.715s1.427-.715 1.427-2.5c0-1.073-.45-2.002-2.14-2.5"/><linearGradient id="c" gradientUnits="userSpaceOnUse" x1="-3.4" y1="-3.123" x2="-3.4" y2=".632" gradientTransform="matrix(1 0 0 -1 8.4 4.1)"><stop offset="0" stop-color="#959595"/><stop offset="1" stop-color="#B8B8B8"/></linearGradient><linearGradient id="d" gradientUnits="userSpaceOnUse" x1="-7.342" y1="-.985" x2=".541" y2="-.985" gradientTransform="matrix(1 0 0 -1 8.4 4.1)"><stop offset="0" stop-color="#ACACAC"/><stop offset="1" stop-color="#BCBCBC"/></linearGradient><path fill="url(#c)" stroke="url(#d)" stroke-width=".75" stroke-miterlimit="10" d="M1.434 4.63C1.456 5.836 3.22 7.14 3.22 7.14h1.07V3.573c-.713 0-1.45-.513-1.45-.513s-1.428.367-1.406 1.57m5.713-1.57s-.357.51-1.427.51v3.57h1.07s1.752-1.294 1.775-2.498C8.588 3.438 7.147 3.06 7.147 3.06"/><path fill="none" stroke="#8E8E8E" stroke-width=".75" stroke-miterlimit="10" d="M1.434 4.63C1.456 5.836 3.22 7.14 3.22 7.14h1.07V3.573c-.713 0-1.45-.513-1.45-.513s-1.428.367-1.406 1.57zm5.713-1.57s-.357.51-1.427.51v3.57h1.07s1.752-1.294 1.775-2.498C8.588 3.438 7.147 3.06 7.147 3.06z"/></svg><view viewBox="0 240 30 30"/><svg width="30" height="30" viewBox="-10 -10 30 30" y="240"><path fill="#929292" d="M9.77 4.195a1.239 1.239 0 0 0-.958-.583l-2.566-.005a4.22 4.22 0 0 0 .325-1.62 6.601 6.601 0 0 0-.03-.497S6.456.22 5.361.22c-.636 0-1.152.52-1.152 1.16 0 .09-.003.136-.003.13a2.455 2.455 0 0 1-2.238 2.44H.395s0 .002-.002.002h-.02c.002 0 .006 0 .01.002a.343.343 0 0 0-.238.105.332.332 0 0 0-.102.238v5.134c0 .097.045.183.113.245a.31.31 0 0 0 .216.102H8.08c-.108 0 .285-.03.53-.183.32-.207.507-.54.546-.892 0-.005.005.014.006.01l.794-3.82a1.257 1.257 0 0 0-.185-.7m-8.01 4.9H.734V4.64H1.76v4.458m6.784-.594c.01-.033.007-.03-.01.056l.01-.056c-.02.08-.116.426-.246.51-.157.097-.256.082-.256.082h-5.6V4.52c1.073-.316 1.96-1.194 2.29-2.17.002 0 .002 0 0 .002a1.31 1.31 0 0 0 .08-.32c.035-.392.062-.72.062-.72S4.904.87 5.34.87c.25 0 .46.175.5.443.017.03.037.175.035.65a4.65 4.65 0 0 1-.155 1.025c-.068.252-.157.44-.275.668 0 0-.087.114-.087.294 0 .19.148.343.33.343l3.122.02a.477.477 0 0 1 .417.22c.057.09.07.194.063.293l-.746 3.676"/></svg><view viewBox="0 270 30 30"/><svg width="30" height="30" viewBox="-10 -10 30 30" y="270"><path fill="#E04023" d="M9.77 4.196a1.25 1.25 0 0 0-.96-.584l-2.565-.004c.206-.5.323-1.046.323-1.62a6.14 6.14 0 0 0-.03-.498S6.455.22 5.36.22c-.637 0-1.153.52-1.153 1.16 0 .09-.002.136-.002.13a2.455 2.455 0 0 1-2.238 2.44H.395s0 .002-.002.002H.37h.013a.348.348 0 0 0-.237.107.33.33 0 0 0-.103.24v5.13c0 .1.044.185.113.247.055.06.13.097.216.1l.01.002H8.08c-.107 0 .287-.03.53-.185.32-.205.507-.538.546-.89 0-.006.005.013.006.007l.793-3.818c.01-.237-.05-.48-.186-.698m-8.01 4.9H.736v-4.46H1.76v4.46M8.545 8.5c.01-.033.006-.027-.01.056l.01-.056c-.02.082-.116.427-.247.51-.157.1-.256.083-.256.083H2.445V4.52c1.073-.316 1.958-1.193 2.29-2.17l.002.002c.04-.116.072-.23.08-.32.034-.392.06-.72.06-.72s.03-.443.468-.443c.248 0 .458.177.498.443.018.03.037.176.034.65-.027.51-.108.884-.156 1.025a2.99 2.99 0 0 1-.272.67s-.087.113-.087.292c0 .19.15.344.332.344l3.12.018c.163 0 .323.07.415.22.055.092.07.195.063.294l-.747 3.676"/><path fill="#FFD7A5" d="M.736 9.083h1.022V4.64H.736v4.443m7.776-.534c.018-.085.02-.09.012-.058l-.012.057m.692-4.016a.48.48 0 0 0-.414-.22l-3.112-.018a.337.337 0 0 1-.33-.34c0-.18.086-.294.086-.294.118-.226.207-.416.273-.667.046-.14.127-.514.156-1.02.005-.475-.016-.62-.033-.652a.502.502 0 0 0-.497-.443c-.436 0-.466.443-.466.443s-.027.327-.062.718c-.007.09-.038.205-.08.32-.33.973-1.215 1.848-2.284 2.164v4.56h5.582s.1.017.255-.082c.13-.082.224-.426.247-.507l.742-3.667a.48.48 0 0 0-.062-.294"/><path fill="#F48700" d="M.736 4.64h1.022v4.444H.736V4.64z"/></svg><view viewBox="0 300 30 30"/><svg width="30" height="30" viewBox="-10 -10 30 30" y="300"><path fill="#FD9426" d="M9.847 8.527c-.282-.495-4.13-7.2-4.376-7.623-.21-.353-.74-.388-.95 0-.318.6-4.13 7.27-4.34 7.623a.548.548 0 0 0 .457.847h8.715c.46 0 .672-.495.495-.847z"/><path fill="#FFF" d="M5.013 2.81c.14 0 .282.106.282.283v3.812c0 .14-.106.28-.282.28a.277.277 0 0 1-.282-.28V3.092c0-.14.142-.28.283-.28zm0 4.905c.14 0 .282.106.282.283 0 .14-.106.282-.282.282a.279.279 0 0 1-.282-.282c0-.142.142-.283.283-.283z"/></svg><view viewBox="0 330 30 30"/><svg width="30" height="30" viewBox="-10 -10 30 30" y="330"><path fill="#FDB206" d="M7.143 1.438c-.237.235-.55.47-.867.68C6.904 1.272 6.904.01 5.013 0 3.093.007 3.097 1.283 3.74 2.13a6.135 6.135 0 0 1-.884-.692C.714 1.438 0 3.578 0 4.29c0 2.143 1.428 3.57 1.428 3.57v.713L2.143 10h5.715l.714-1.427V7.86s1.43-1.428 1.43-3.57C10 3.578 9.283 1.44 7.14 1.44"/><path fill="#FDD93A" d="M2.142 9.273h5.715V8.56H2.142v.713m2.863-6.82c.676 0 1.894-1.75 0-1.75-1.92 0-.674 1.75 0 1.75m2.138-.315c-.715 1.07-2.137 1.084-2.137 1.084S3.57 3.21 2.856 2.138C1.164 2.635.714 3.564.714 4.638a2.834 2.834 0 0 0 1.43 2.497v.715h5.713v-.715s1.428-.714 1.428-2.498c0-1.073-.45-2.002-2.142-2.5"/><linearGradient id="e" gradientUnits="userSpaceOnUse" x1="-11.94" y1="-806.101" x2="-11.94" y2="-809.936" gradientTransform="matrix(1 0 0 -1 16.94 -802.746)"><stop offset="0" stop-color="#E82208" stop-opacity=".9"/><stop offset="1" stop-color="#CC1108" stop-opacity=".9"/></linearGradient><path fill="url(#e)" d="M1.434 4.625c.022 1.204 1.786 2.51 1.786 2.51h1.07V3.566c-.713 0-1.45-.513-1.45-.513s-1.43.367-1.406 1.57m5.714-1.57s-.358.512-1.428.512v3.567h1.07S8.543 5.84 8.565 4.635c.023-1.203-1.417-1.582-1.417-1.582"/><linearGradient id="f" gradientUnits="userSpaceOnUse" x1="-11.94" y1="-805.799" x2="-11.94" y2="-809.88" gradientTransform="matrix(1 0 0 -1 16.94 -802.746)"><stop offset="0" stop-color="#E02613"/><stop offset="1" stop-color="#AE1E24" stop-opacity=".995"/></linearGradient><linearGradient id="g" gradientUnits="userSpaceOnUse" x1="-3.4" y1="-16.524" x2="-3.4" y2="-21.409" gradientTransform="matrix(1 0 0 -1 8.4 -13.9)"><stop offset="0" stop-color="#C6271E"/><stop offset=".988" stop-color="#AE1E24" stop-opacity=".995"/></linearGradient><path fill="url(#f)" stroke="url(#g)" stroke-width=".75" stroke-miterlimit="10" d="M1.434 4.625c.022 1.204 1.786 2.51 1.786 2.51h1.07V3.566c-.713 0-1.45-.513-1.45-.513s-1.43.367-1.406 1.57zm5.714-1.572s-.358.513-1.428.513v3.567h1.07S8.543 5.84 8.565 4.635c.023-1.203-1.417-1.582-1.417-1.582z"/><path fill="#FFF" d="M7.45 9.642l.01-2.732h-.71V5.466H8.9l-.01 4.176"/><path fill="#F6AB00" d="M8.54 5.824l-.006 3.46H7.81l.008-2.73h-.71v-.73h1.433m.718-.715H6.395v2.158H7.1l-.005 2.014-.002.718H9.25v-.714l.007-3.46v-.717z"/></svg><view viewBox="0 360 30 30"/><svg width="30" height="30" viewBox="-10 -10 30 30" y="360"><path fill="#FDB206" d="M7.143 1.437c-.237.235-.55.47-.867.68.628-.846.628-2.11-1.263-2.117-1.92.007-1.916 1.283-1.273 2.13a6.07 6.07 0 0 1-.884-.693C.714 1.437 0 3.575 0 4.29c0 2.14 1.428 3.567 1.428 3.567v.712l.714 1.426h5.715L8.57 8.57v-.714S10 6.43 10 4.29c0-.715-.716-2.853-2.857-2.853"/><path fill="#FDD93A" d="M2.142 9.27h5.714v-.715H2.142v.714m2.863-6.82c.675 0 1.894-1.746 0-1.746-1.92 0-.674 1.747 0 1.747m2.138-.313C6.428 3.207 5.005 3.22 5.005 3.22s-1.434-.01-2.15-1.083c-1.69.497-2.14 1.426-2.14 2.498a2.835 2.835 0 0 0 1.428 2.497v.715h5.714v-.715s1.428-.714 1.428-2.497c0-1.072-.45-2-2.142-2.498"/><linearGradient id="h" gradientUnits="userSpaceOnUse" x1="-11.941" y1="-806.1" x2="-11.941" y2="-809.934" gradientTransform="matrix(1 0 0 -1 16.94 -802.746)"><stop offset="0" stop-color="#E82208" stop-opacity=".9"/><stop offset="1" stop-color="#CC1108" stop-opacity=".9"/></linearGradient><path fill="url(#h)" d="M1.434 4.623c.022 1.204 1.786 2.51 1.786 2.51h1.07V3.564c-.714 0-1.45-.512-1.45-.512s-1.43.366-1.406 1.57m5.713-1.57s-.356.51-1.428.51V7.13h1.07s1.752-1.293 1.773-2.497c.024-1.202-1.416-1.58-1.416-1.58"/><linearGradient id="i" gradientUnits="userSpaceOnUse" x1="-11.941" y1="-805.798" x2="-11.941" y2="-809.878" gradientTransform="matrix(1 0 0 -1 16.94 -802.746)"><stop offset="0" stop-color="#E02613"/><stop offset="1" stop-color="#AE1E24" stop-opacity=".995"/></linearGradient><linearGradient id="j" gradientUnits="userSpaceOnUse" x1="-3.401" y1="-16.523" x2="-3.401" y2="-21.407" gradientTransform="matrix(1 0 0 -1 8.4 -13.9)"><stop offset="0" stop-color="#C6271E"/><stop offset=".988" stop-color="#AE1E24" stop-opacity=".995"/></linearGradient><path fill="url(#i)" stroke="url(#j)" stroke-width=".75" stroke-miterlimit="10" d="M1.434 4.623c.022 1.204 1.786 2.51 1.786 2.51h1.07V3.564c-.714 0-1.45-.512-1.45-.512s-1.43.366-1.406 1.57zm5.713-1.57s-.356.51-1.428.51v3.568h1.07s1.752-1.293 1.773-2.497c.024-1.202-1.416-1.58-1.416-1.58z"/><path fill="#FFF" d="M6.764 9.644V5.34h2.87v2.85h.01v1.454"/><path fill="#F6AB00" d="M9.276 5.697V7.84h-1.42v.708h1.428v.737H7.12V7.117h1.448v-.703H7.12v-.717h2.156m.716-.715H6.406V10H10V7.834h-.008V4.982z"/></svg><view viewBox="0 390 30 30"/><svg width="30" height="30" viewBox="-10 -10 30 30" y="390"><path fill="#FDB206" d="M7.143 1.462c-.237.236-.55.472-.866.682.628-.847.628-2.112-1.265-2.12C3.095.033 3.098 1.31 3.74 2.157a6.074 6.074 0 0 1-.884-.694C.714 1.462 0 3.602 0 4.316c0 2.14 1.43 3.568 1.43 3.568v.713l.713 1.427H7.86l.712-1.427v-.712s1.43-1.428 1.43-3.568C10 3.602 9.284 1.462 7.14 1.462"/><path fill="#FDD93A" d="M2.143 9.298h5.715v-.714H2.143v.714m2.863-6.82c.676 0 1.895-1.75 0-1.75-1.92 0-.675 1.75 0 1.75m2.137-.315c-.714 1.07-2.137 1.084-2.137 1.084s-1.435-.012-2.15-1.084C1.166 2.66.714 3.59.714 4.663a2.836 2.836 0 0 0 1.43 2.497v.716h5.714V7.16s1.428-.715 1.428-2.498c0-1.073-.45-2.002-2.143-2.5"/><linearGradient id="k" gradientUnits="userSpaceOnUse" x1="-11.94" y1="-806.126" x2="-11.94" y2="-809.961" gradientTransform="matrix(1 0 0 -1 16.94 -802.746)"><stop offset="0" stop-color="#E82208" stop-opacity=".9"/><stop offset="1" stop-color="#CC1108" stop-opacity=".9"/></linearGradient><path fill="url(#k)" d="M1.435 4.65C1.457 5.854 3.22 7.16 3.22 7.16h1.07V3.59c-.714 0-1.45-.512-1.45-.512s-1.428.368-1.405 1.572m5.713-1.572s-.357.513-1.428.513v3.57h1.07s1.752-1.295 1.774-2.5S7.148 3.08 7.148 3.08"/><linearGradient id="l" gradientUnits="userSpaceOnUse" x1="-11.94" y1="-805.824" x2="-11.94" y2="-809.905" gradientTransform="matrix(1 0 0 -1 16.94 -802.746)"><stop offset="0" stop-color="#E02613"/><stop offset="1" stop-color="#AE1E24" stop-opacity=".995"/></linearGradient><linearGradient id="m" gradientUnits="userSpaceOnUse" x1="-3.4" y1="-16.549" x2="-3.4" y2="-21.435" gradientTransform="matrix(1 0 0 -1 8.4 -13.9)"><stop offset="0" stop-color="#C6271E"/><stop offset=".988" stop-color="#AE1E24" stop-opacity=".995"/></linearGradient><path fill="url(#l)" stroke="url(#m)" stroke-width=".75" stroke-miterlimit="10" d="M1.435 4.65C1.457 5.854 3.22 7.16 3.22 7.16h1.07V3.59c-.714 0-1.45-.512-1.45-.512s-1.428.368-1.405 1.572zm5.713-1.572s-.357.513-1.428.513v3.57h1.07s1.752-1.295 1.774-2.5S7.148 3.08 7.148 3.08z"/><path fill="#FFF" d="M6.764 9.656V8.21H8.19v-.015H6.765V5.33h2.88v4.326"/><path fill="#F6AB00" d="M9.285 5.688v3.61H7.12v-.73h1.43v-.73H7.12v-.73h1.43v-.695H7.12v-.725h2.165M10 4.973H6.405v5.039H10v-5.04z"/></svg><view viewBox="0 420 30 30"/><svg width="30" height="30" viewBox="-10 -10 30 30" y="420"><path fill="#FDB206" d="M7.13 1.437a5.89 5.89 0 0 1-.864.68C6.894 1.271 6.894.007 5.004 0c-1.915.007-1.912 1.283-1.27 2.13a6.01 6.01 0 0 1-.883-.694C.714 1.436 0 3.576 0 4.29c0 2.14 1.426 3.566 1.426 3.566v.713l.713 1.426h5.703l.714-1.427v-.714S9.982 6.43 9.982 4.29c0-.714-.714-2.853-2.852-2.853"/><path fill="#FDD93A" d="M2.14 9.27h5.703v-.714H2.14v.715m2.857-6.82c.674 0 1.892-1.746 0-1.746-1.916 0-.674 1.747 0 1.747m2.133-.313C6.417 3.207 4.997 3.22 4.997 3.22s-1.433-.01-2.145-1.083c-1.69.497-2.14 1.426-2.14 2.498a2.837 2.837 0 0 0 1.427 2.498v.715h5.703v-.715s1.425-.715 1.425-2.498c0-1.072-.45-2-2.138-2.498"/><linearGradient id="n" gradientUnits="userSpaceOnUse" x1="-11.949" y1="-806.1" x2="-11.949" y2="-809.934" gradientTransform="matrix(1 0 0 -1 16.94 -802.746)"><stop offset="0" stop-color="#E82208" stop-opacity=".9"/><stop offset="1" stop-color="#CC1108" stop-opacity=".9"/></linearGradient><path fill="url(#n)" d="M1.432 4.623c.022 1.204 1.782 2.51 1.782 2.51h1.068V3.564c-.712 0-1.447-.513-1.447-.513s-1.426.368-1.403 1.57m5.704-1.57s-.357.513-1.426.513v3.567h1.068s1.75-1.294 1.77-2.497c.024-1.204-1.412-1.583-1.412-1.583"/><linearGradient id="o" gradientUnits="userSpaceOnUse" x1="-11.949" y1="-805.798" x2="-11.949" y2="-809.878" gradientTransform="matrix(1 0 0 -1 16.94 -802.746)"><stop offset="0" stop-color="#E02613"/><stop offset="1" stop-color="#AE1E24" stop-opacity=".995"/></linearGradient><linearGradient id="p" gradientUnits="userSpaceOnUse" x1="-3.409" y1="-16.523" x2="-3.409" y2="-21.407" gradientTransform="matrix(1 0 0 -1 8.4 -13.9)"><stop offset="0" stop-color="#C6271E"/><stop offset=".988" stop-color="#AE1E24" stop-opacity=".995"/></linearGradient><path fill="url(#o)" stroke="url(#p)" stroke-width=".75" stroke-miterlimit="10" d="M1.432 4.623c.022 1.204 1.782 2.51 1.782 2.51h1.068V3.564c-.712 0-1.447-.513-1.447-.513s-1.426.368-1.403 1.57zm5.704-1.57s-.357.512-1.426.512v3.567h1.068s1.75-1.294 1.77-2.497c.024-1.204-1.412-1.583-1.412-1.583z"/><path fill="#FFF" d="M7.838 9.642v-.73h-1.07V5.318h2.52v2.15h.355V8.91h-.356v.73"/><path fill="#F6AB00" d="M8.93 5.676v2.148h.355v.73H8.93v.73h-.735v-.73h-1.07V5.677h.734v2.148h.335V5.676h.734m.715-.715H6.41V9.27h1.071V10h2.164v-.73H10V7.11h-.355V4.96z"/></svg><view viewBox="0 450 30 30"/><svg width="30" height="30" viewBox="-10 -10 30 30" y="450"><path fill="#FDB206" d="M7.143 1.438c-.237.235-.55.47-.867.68C6.904 1.272 6.904.01 5.013 0 3.093.007 3.097 1.284 3.74 2.13a5.999 5.999 0 0 1-.884-.692C.714 1.438 0 3.578 0 4.292 0 6.432 1.428 7.86 1.428 7.86v.713L2.143 10h5.715l.714-1.427V7.86S10 6.43 10 4.29c0-.714-.716-2.854-2.857-2.854"/><path fill="#FDD93A" d="M2.142 9.273h5.714V8.56H2.142v.713m2.863-6.82c.675 0 1.894-1.75 0-1.75-1.92.002-.674 1.75 0 1.75m2.138-.314c-.715 1.068-2.138 1.083-2.138 1.083S3.57 3.21 2.855 2.14c-1.69.495-2.14 1.425-2.14 2.498a2.837 2.837 0 0 0 1.428 2.498v.715h5.714v-.714s1.428-.715 1.428-2.498c0-1.073-.45-2.003-2.142-2.5"/><linearGradient id="q" gradientUnits="userSpaceOnUse" x1="-11.941" y1="-806.102" x2="-11.941" y2="-809.937" gradientTransform="matrix(1 0 0 -1 16.94 -802.746)"><stop offset="0" stop-color="#E82208" stop-opacity=".9"/><stop offset="1" stop-color="#CC1108" stop-opacity=".9"/></linearGradient><path fill="url(#q)" d="M1.434 4.625c.022 1.205 1.786 2.51 1.786 2.51h1.07V3.567c-.714 0-1.45-.513-1.45-.513s-1.43.367-1.406 1.57m5.713-1.57s-.356.513-1.428.513v3.568h1.07S8.542 5.84 8.563 4.637c.024-1.204-1.416-1.583-1.416-1.583"/><linearGradient id="r" gradientUnits="userSpaceOnUse" x1="-11.941" y1="-805.8" x2="-11.941" y2="-809.881" gradientTransform="matrix(1 0 0 -1 16.94 -802.746)"><stop offset="0" stop-color="#E02613"/><stop offset="1" stop-color="#AE1E24" stop-opacity=".995"/></linearGradient><linearGradient id="s" gradientUnits="userSpaceOnUse" x1="-3.401" y1="-16.524" x2="-3.401" y2="-21.41" gradientTransform="matrix(1 0 0 -1 8.4 -13.9)"><stop offset="0" stop-color="#C6271E"/><stop offset=".988" stop-color="#AE1E24" stop-opacity=".995"/></linearGradient><path fill="url(#r)" stroke="url(#s)" stroke-width=".75" stroke-miterlimit="10" d="M1.434 4.625c.022 1.205 1.786 2.51 1.786 2.51h1.07V3.567c-.714 0-1.45-.513-1.45-.513s-1.43.367-1.406 1.57zm5.713-1.57s-.356.512-1.428.512v3.568h1.07S8.542 5.84 8.563 4.637c.024-1.204-1.416-1.583-1.416-1.583z"/><path fill="#FFF" d="M6.768 5.32h2.875v4.312H6.768z"/><path fill="#F6AB00" d="M9.284 5.678v.724h-1.43v.694h1.43v2.178H7.126V8.53h1.4v-.705h-1.4V5.677h2.158M10 4.963H6.41v5.026H10V4.963z"/></svg><view viewBox="0 480 30 30"/><svg width="30" height="30" viewBox="-10 -10 30 30" y="480"><path fill="#FDB206" d="M7.127 1.437c-.236.236-.55.47-.863.682C6.89 1.27 6.89.007 5.002 0 3.087.008 3.09 1.282 3.732 2.13a6.049 6.049 0 0 1-.882-.693C.712 1.437 0 3.577 0 4.29c0 2.14 1.425 3.565 1.425 3.565v.714l.713 1.426H7.84l.713-1.427v-.715S9.978 6.43 9.978 4.29c0-.714-.714-2.853-2.85-2.853"/><path fill="#FDD93A" d="M2.137 9.27H7.84v-.714H2.137v.714m2.858-6.82c.674 0 1.89-1.746 0-1.746-1.915 0-.674 1.746 0 1.746m2.132-.312C6.414 3.206 4.995 3.22 4.995 3.22S3.563 3.21 2.85 2.14C1.162 2.634.712 3.563.712 4.635a2.837 2.837 0 0 0 1.426 2.498v.714H7.84v-.714s1.424-.715 1.424-2.498c0-1.072-.45-2-2.137-2.497"/><linearGradient id="t" gradientUnits="userSpaceOnUse" x1="-11.952" y1="-806.1" x2="-11.952" y2="-809.934" gradientTransform="matrix(1 0 0 -1 16.94 -802.746)"><stop offset="0" stop-color="#E82208" stop-opacity=".9"/><stop offset="1" stop-color="#CC1108" stop-opacity=".9"/></linearGradient><path fill="url(#t)" d="M1.43 4.623c.023 1.204 1.783 2.51 1.783 2.51H4.28V3.564c-.71 0-1.446-.513-1.446-.513s-1.426.368-1.403 1.57m5.703-1.57s-.356.513-1.426.513v3.567h1.07s1.747-1.294 1.77-2.497c.02-1.204-1.414-1.583-1.414-1.583"/><linearGradient id="u" gradientUnits="userSpaceOnUse" x1="-11.952" y1="-805.798" x2="-11.952" y2="-809.878" gradientTransform="matrix(1 0 0 -1 16.94 -802.746)"><stop offset="0" stop-color="#E02613"/><stop offset="1" stop-color="#AE1E24" stop-opacity=".995"/></linearGradient><linearGradient id="v" gradientUnits="userSpaceOnUse" x1="-3.412" y1="-16.523" x2="-3.412" y2="-21.407" gradientTransform="matrix(1 0 0 -1 8.4 -13.9)"><stop offset="0" stop-color="#C6271E"/><stop offset=".988" stop-color="#AE1E24" stop-opacity=".995"/></linearGradient><path fill="url(#u)" stroke="url(#v)" stroke-width=".75" stroke-miterlimit="10" d="M1.43 4.623c.023 1.204 1.783 2.51 1.783 2.51H4.28V3.564c-.71 0-1.446-.513-1.446-.513s-1.426.368-1.403 1.57zm5.703-1.57s-.356.512-1.426.512v3.567h1.07s1.747-1.294 1.77-2.497c.02-1.204-1.414-1.583-1.414-1.583z"/><path fill="#FFF" d="M6.78 9.64l-.002-.36V6.776h.003V5.34h2.863v4.3"/><path fill="#F6AB00" d="M9.286 5.698v.723H7.86v.696h1.426v2.167H7.14V9.28h-.004V7.134h.003V5.698h2.146M7.85 8.565h.682v-.72h-.68v.72M10 4.983H6.424V6.42l-.003.715v2.861h.003L7.14 10H10V4.983z"/></svg></svg>