<svg viewBox="0 0 16 16">
<path fill="#828282" d="M11.6,8.3c-0.6-0.1-0.3-0.5-0.3-0.5s0.6-0.9-0.1-1.6c-0.8-0.8-2.9,0.1-2.9,0.1C7.5,6.5,7.7,6.2,7.8,5.6
	c0-0.7-0.2-1.9-2.3-1.2S1.6,7.6,1.6,7.6c-1.2,1.7-1.1,3-1.1,3c0.3,2.9,3.3,3.6,5.7,3.8c2.5,0.2,5.8-0.8,6.8-3
	C14,9.2,12.2,8.4,11.6,8.3z M6.4,13.6c-2.4,0.1-4.4-1.1-4.4-2.8s2-3,4.4-3.1c2.5-0.1,4.5,0.9,4.5,2.6C10.8,11.9,8.8,13.5,6.4,13.6z
	 M5.9,8.8c-2.5,0.3-2.2,2.6-2.2,2.6s0,0.7,0.7,1.1c1.4,0.8,2.9,0.3,3.7-0.7C8.8,10.9,8.4,8.5,5.9,8.8z M5.3,12.1
	c-0.5,0.1-0.8-0.2-0.8-0.6s0.3-0.8,0.8-0.8c0.5-0.1,0.9,0.2,0.9,0.6C6.1,11.7,5.7,12.1,5.3,12.1z M6.7,10.8c-0.2,0.1-0.4,0.1-0.4,0
	c-0.1-0.2-0.1-0.4,0.1-0.5c0.2-0.2,0.4-0.1,0.5,0C6.9,10.5,6.9,10.7,6.7,10.8z M12.8,7.2c0.2,0,0.4-0.2,0.4-0.3v0
	C13.5,4.2,11,4.6,11,4.6c-0.2,0-0.4,0.2-0.4,0.4c0,0.2,0.2,0.4,0.4,0.4c1.8-0.4,1.4,1.4,1.4,1.4C12.4,7.1,12.6,7.2,12.8,7.2z
	 M12.5,2.5c-0.9-0.2-1.8,0-2,0c0,0,0,0-0.1,0l0,0C10.2,2.6,10,2.8,10,3.1c0,0.3,0.3,0.6,0.6,0.6c0,0,0.3,0,0.5-0.1
	c0.2-0.1,2-0.1,2.9,1.4c0.5,1.1,0.2,1.8,0.2,2c0,0-0.1,0.3-0.1,0.6c0,0.3,0.3,0.5,0.6,0.5c0.3,0,0.5,0,0.6-0.5l0,0
	C16.2,4.4,14.1,2.9,12.5,2.5z"/>
</svg>
