<?xml version="1.0" encoding="utf-8"?>
<!-- Generator: Adobe Illustrator 16.0.0, SVG Export Plug-In . SVG Version: 6.00 Build 0)  -->
<!DOCTYPE svg PUBLIC "-//W3C//DTD SVG 1.1//EN" "http://www.w3.org/Graphics/SVG/1.1/DTD/svg11.dtd">
<svg version="1.1" id="图层_1" xmlns="http://www.w3.org/2000/svg" xmlns:xlink="http://www.w3.org/1999/xlink" x="0px" y="0px"
	 width="169px" height="141.168px" viewBox="86.5 24.332 169 141.168" enable-background="new 86.5 24.332 169 141.168"
	 xml:space="preserve">
<path fill="#571E1A" d="M224.137,100.469c0,0,11.296-36.686-36.025-49.305c3.611-10.278-6.971-18.826-6.971-18.826
	s1.31,6.751-7.335,12.415c-1.838-4.192-4.81-8.55-4.113-6.462c0.825,5.772-3.113,8.884-7.64,11.354
	c-2.733,0.799-5.642,1.641-8.622,2.605c-17.944,5.812-38.168,16.067-33.96,48.17c-8.234-2.318-21.693,2.932-20.645,18.352
	c3.495,22.601,25.124,13.297,25.124,13.297s11.094,21.709,48.006,21.766c36.379,0.056,47.449-21.46,47.449-21.46
	s22.746,8.396,25.493-13.738C246.161,96.752,224.137,100.469,224.137,100.469z"/>
<path fill="#FFECCA" d="M171.734,85.814c-10.787-26.458-50.171-6.818-30.733,22.39c-21.473,24.424,7.854,41.397,30.954,41.296
	c22.698-0.101,52.291-15.346,30.92-41.601C220.48,84.798,188.22,55.794,171.734,85.814z"/>
<path d="M224.492,92.511c-23.151-2.799-39.671,1.872-45.234,3.002c-6.259,1.272-6.156,1.272-13.383,0.05
	c-13.942-4.985-44.104-3.482-45.896-3.307c-1.298,0.128-2.847,1.019-2.799,1.934c-0.178,1.043,1.375,7.125,1.375,7.125
	s1.055,0.741,1.323,0.967c0.477,0.4,4.817,19.459,7.734,21.727c2.748,2.137,25.798,3.358,29.614,1.449
	c4.935-5.419,5.953-9.106,12.364-17.479c0.542-0.707,3.917-0.609,4.631-0.1c0.713,0.509,10.319,16.648,12.414,17.604
	c1.881,0.856,25.697,1.78,29.514-1.832c3.815-3.612,7.733-21.575,7.733-21.575l1.424-1.425l1.221-5.597
	C226.528,95.055,226.936,93.324,224.492,92.511z M165.697,108.437c-0.992,8.701-12.567,14.96-15.443,15.774
	c-2.851,0.808-13.179,1.018-18.318-1.73c-6.785-3.628-8.854-19.335-6.614-23.712c2.519-5.824,28.164-8.038,38.293,2.938
	C165.751,104.2,166.014,105.661,165.697,108.437z M211.47,122.48c-5.14,2.748-15.466,2.538-18.318,1.73
	c-2.875-0.814-14.118-5.978-15.367-15.978c-0.347-2.772,0.252-4.224,2.39-6.717c12.139-11.077,35.773-8.19,37.91-2.748
	C220.322,103.144,218.255,118.853,211.47,122.48z"/>
<g display="none">
	<g display="inline">
		<path d="M78.725,124.225c4.921-5.43,15.363-6.586,20.759-1.361c1.261,1.224,3.188-0.699,1.925-1.924
			c-6.433-6.229-18.677-5.185-24.609,1.361C75.624,123.598,77.543,125.527,78.725,124.225L78.725,124.225z"/>
	</g>
</g>
<g display="none">
	<g display="inline">
		<path d="M159.48,122.301c-5.936-6.546-18.178-7.592-24.609-1.361c-1.264,1.225,0.663,3.146,1.924,1.924
			c5.396-5.225,15.839-4.065,20.76,1.361C158.736,125.527,160.654,123.598,159.48,122.301L159.48,122.301z"/>
	</g>
</g>
<path opacity="0.35" fill="#FFFFFF" enable-background="new    " d="M165.774,108.234c-0.967,7.836-11.335,16.339-18.775,16.538
	c-7.53,0.202-12.568-0.51-15.825-2.8c-4.563-3.209-5.854-9.931-6.564-14.554c-0.428-2.797-0.83-6.61,1.223-9.311
	c1.934-2.544,10.719-5.515,22.744-3.511C157.586,96.101,166.659,101.062,165.774,108.234z"/>
<path opacity="0.35" fill="#FFFFFF" enable-background="new    " d="M177.783,107.775c0.31,1.923,0.602,4.335,2.441,6.919
	c3.471,4.871,10.333,9.874,16.283,9.973c13.646,0.229,20.099-1.167,22.134-17.043c1.068-9.516,0.661-14.554-21.776-13.232
	C187.743,94.931,176.714,101.16,177.783,107.775z"/>
<path opacity="0.9" fill="#FFFFFF" enable-background="new    " d="M130.719,100.346c0.413,0.748,1.27,0.093,2.541-0.61
	s2.475-1.188,2.062-1.936c-0.414-0.748-1.555-0.446-2.826,0.258C131.225,98.761,130.305,99.598,130.719,100.346z"/>
<path opacity="0.9" fill="#FFFFFF" enable-background="new    " d="M134.469,101.209c0.27,0.49,1.012,0.056,1.844-0.406
	c0.831-0.461,1.438-0.771,1.168-1.259c-0.271-0.491-1.1-0.117-1.933,0.345C134.718,100.349,134.198,100.72,134.469,101.209z"/>
<path opacity="0.9" fill="#FFFFFF" enable-background="new    " d="M183.841,102.788c0.413,0.747,1.27,0.093,2.54-0.609
	c1.271-0.704,2.477-1.189,2.063-1.937c-0.415-0.748-1.556-0.446-2.825,0.257C184.347,101.202,183.427,102.041,183.841,102.788z"/>
<path opacity="0.9" fill="#FFFFFF" enable-background="new    " d="M187.591,103.652c0.271,0.489,1.012,0.054,1.844-0.406
	c0.832-0.461,1.439-0.771,1.168-1.26c-0.271-0.491-1.1-0.117-1.932,0.344C187.84,102.791,187.321,103.162,187.591,103.652z"/>
<path fill="#40220F" d="M182.336,44.65"/>
<path d="M166.94,118.886c0,0.459,0.236,0.613,0.54,0.797c2.256,1.364,4.474,1.537,4.474,1.537s2.351-0.229,4.467-1.467
	c0.615-0.36,0.547-0.867,0.547-0.867l-5.076,0.268L166.94,118.886z"/>
</svg>
