<svg xmlns="http://www.w3.org/2000/svg" width="100" height="100" viewBox="0 0 100 100"><path fill="#662308" d="M85.768 55.047s7.725-25.08-24.627-33.71C63.61 14.313 56.375 8.47 56.375 8.47s.895 4.614-5.016 8.485c-1.256-2.866-3.288-5.845-2.81-4.417.562 3.946-2.132 6.073-5.226 7.762-1.87.547-4.243.987-6.295 1.597-12.426 3.682-26.97 13.12-22.815 33.116C8.582 53.428-1.43 56.816.172 67.996c1.938 14.296 17.21 8.88 17.21 8.88s7.475 14.616 32.712 14.655c24.872.04 32.44-14.67 32.44-14.67s15.553 5.74 17.43-9.393c.865-14.96-14.196-12.42-14.196-12.42z"/><path fill="#FFECCA" d="M49.945 45.375c-7.376-18.09-34.3-4.66-21.012 15.306-14.68 16.696 5.37 28.304 21.164 28.234 15.516-.068 35.75-10.492 21.137-28.44 12.037-15.794-10.02-35.623-21.29-15.1z"/><path d="M86.014 49.607c-15.827-1.913-27.123 1.278-30.926 2.052-4.278.87-4.21.87-9.15.033-9.53-3.41-30.15-2.382-31.376-2.263-.888.088-1.947.698-1.915 1.323-.12.712.94 4.872.94 4.872s.72.507.904.66c.327.274 3.295 13.305 5.29 14.852 1.878 1.464 17.46 2.278 20.07.974.362-.17.727-.506.727-.506 3.276-3.33 5.572-8.878 7.84-11.407.64-.775 2.612-.715 3.332-.143.998.882 4.814 9.713 7.912 11.715.228.144.75.446.873.504 1.283.582 17.165 1.093 19.774-1.38 2.607-2.47 5.286-14.75 5.286-14.75l.972-.975.838-3.825s.278-1.182-1.392-1.738zm-40.197 10.89c-.678 5.946-8.168 10.125-10.56 10.782-1.948.553-9.007.695-12.523-1.185-4.64-2.48-6.053-13.22-4.52-16.212 1.722-3.982 19.256-5.495 26.18 2.007 1.46 1.71 1.64 2.71 1.423 4.606zm31.29 9.6c-3.51 1.88-10.572 1.736-12.52 1.183-1.966-.556-9.652-4.085-10.507-10.922-.236-1.896.174-2.89 1.634-4.595 8.3-7.57 24.457-5.6 25.92-1.878 1.528 2.99.114 13.73-4.526 16.21z"/><path opacity=".35" fill="#FFF" d="M45.87 60.358c-.66 5.356-7.75 11.17-12.837 11.305-5.148.14-8.592-.348-10.817-1.914-3.12-2.192-4.002-6.79-4.49-9.948-.29-1.914-.567-4.52.837-6.368 1.322-1.736 7.328-3.77 15.55-2.398 6.158 1.026 12.362 4.415 11.756 9.322zM54.08 60.042c.21 1.314.41 2.965 1.668 4.73 2.374 3.33 7.064 6.75 11.132 6.818 9.33.155 13.743-.798 15.135-11.65.73-6.508.45-9.954-14.89-9.047-6.235.367-13.776 4.628-13.045 9.15z"/><path opacity=".9" fill="#FFF" d="M21.903 54.963c.283.513.868.064 1.738-.416s1.69-.813 1.41-1.324c-.284-.51-1.063-.306-1.933.18-.867.475-1.496 1.047-1.214 1.56zM24.465 55.555c.186.333.69.038 1.26-.277.57-.316.985-.527.8-.86-.186-.337-.75-.08-1.322.235-.566.31-.922.565-.738.902zM58.222 56.634c.282.512.868.063 1.735-.417.87-.48 1.694-.813 1.41-1.324-.284-.51-1.063-.304-1.93.177-.87.478-1.5 1.052-1.215 1.564zM60.784 57.225c.185.335.69.034 1.26-.275.572-.318.986-.53.8-.864-.187-.335-.753-.08-1.32.235-.57.315-.922.568-.74.905z"/><path d="M46.667 67.64c0 .312.163.42.37.544 1.54.933 3.058 1.053 3.058 1.053s1.608-.156 3.054-1.004c.418-.245.374-.594.374-.594l-3.473.183-3.383-.184z"/><path fill="#FFECCA" d="M15.44 71.394l-.59.208c-1.012.358-3.92-.274-4.485-1.866-.566-1.59-.204-3.168.807-3.53.755-.27 1.66.22 2.306 1.147-.163-.538-.28-1.1-.31-1.696-.414-8.078-3.583-9.025-7.03-7.122-2.754 1.52-4.774 5.62-3.8 9.973 1.076 4.815 4.946 7.294 8.937 7.12 1.94-.083 4.234-.312 4.774-1.45.387-.824-.61-2.784-.61-2.784zM84.64 71.394s.52.182.59.208c1.013.358 3.92-.274 4.485-1.866.567-1.59.205-3.168-.806-3.53-.758-.27-1.66.22-2.306 1.147.162-.538.275-1.1.31-1.696.412-8.078 3.582-9.025 7.03-7.122 2.756 1.52 4.77 5.62 3.8 9.973-1.08 4.815-4.947 7.294-8.937 7.12-1.943-.083-4.235-.312-4.775-1.45-.388-.824.608-2.784.608-2.784z"/></svg>
