<?xml version="1.0" encoding="utf-8"?>
<!-- Generator: Adobe Illustrator 16.0.0, SVG Export Plug-In . SVG Version: 6.00 Build 0)  -->
<!DOCTYPE svg PUBLIC "-//W3C//DTD SVG 1.1//EN" "http://www.w3.org/Graphics/SVG/1.1/DTD/svg11.dtd">
<svg version="1.1" id="图层_1" xmlns="http://www.w3.org/2000/svg" xmlns:xlink="http://www.w3.org/1999/xlink" x="0px" y="0px"
	 width="129.25px" height="107.5px" viewBox="99.75 48.75 129.25 107.5" enable-background="new 99.75 48.75 129.25 107.5"
	 xml:space="preserve">
<path fill="#662308" d="M207.261,108.546c0,0,9.271-30.108-29.566-40.465c2.964-8.436-5.722-15.451-5.722-15.451
	s1.075,5.541-6.02,10.189c-1.508-3.44-3.947-7.018-3.375-5.304c0.678,4.737-2.556,7.291-6.271,9.318
	c-2.243,0.656-5.093,1.186-7.558,1.917c-14.916,4.42-32.375,15.75-27.39,39.755c-6.758-1.902-18.777,2.162-16.854,15.585
	c2.327,17.16,20.661,10.66,20.661,10.66s8.974,17.546,39.269,17.593c29.856,0.046,38.941-17.612,38.941-17.612
	s18.668,6.891,20.923-11.275C225.337,105.496,207.261,108.546,207.261,108.546z"/>
<path fill="#FFECD9" d="M164.254,96.935c-8.854-21.714-41.176-5.596-25.224,18.375c-17.622,20.045,6.446,33.975,25.405,33.892
	c18.628-0.082,42.915-12.594,25.376-34.142C204.26,96.101,177.783,72.297,164.254,96.935z"/>
<path d="M207.553,102.015c-19.001-2.297-32.559,1.537-37.124,2.463c-5.137,1.045-5.054,1.045-10.984,0.042
	c-11.441-4.092-36.195-2.858-37.667-2.714c-1.065,0.105-2.337,0.836-2.298,1.587c-0.146,0.856,1.128,5.848,1.128,5.848
	s0.866,0.608,1.087,0.793c0.391,0.329,3.954,15.971,6.348,17.831c2.255,1.754,20.962,2.732,24.094,1.166
	c0.438-0.203,0.873-0.607,0.873-0.607c3.933-4,6.689-10.659,9.41-13.695c0.767-0.931,3.135-0.857,4.001-0.171
	c1.198,1.059,5.78,11.66,9.497,14.063c0.273,0.177,0.9,0.538,1.048,0.605c1.543,0.702,20.608,1.312,23.739-1.653
	c3.132-2.965,6.348-17.707,6.348-17.707l1.168-1.169l1.002-4.593C209.224,104.103,209.558,102.683,207.553,102.015z
	 M159.299,115.085c-0.813,7.142-9.805,12.157-12.675,12.946c-2.339,0.663-10.815,0.835-15.034-1.421
	c-5.568-2.977-7.266-15.867-5.428-19.46c2.067-4.78,23.114-6.597,31.428,2.411C159.344,111.608,159.559,112.808,159.299,115.085z
	 M196.864,126.61c-4.218,2.256-12.692,2.084-15.033,1.421c-2.359-0.668-11.587-4.906-12.612-13.112
	c-0.284-2.275,0.207-3.467,1.961-5.513c9.962-9.091,29.359-6.722,31.113-2.256C204.13,110.741,202.433,123.634,196.864,126.61z"/>
<g display="none">
	<g display="inline">
		<path d="M78.725,124.225c4.921-5.43,15.363-6.586,20.759-1.361c1.261,1.224,3.188-0.699,1.925-1.924
			c-6.433-6.229-18.677-5.185-24.609,1.361C75.624,123.598,77.543,125.527,78.725,124.225L78.725,124.225z"/>
	</g>
</g>
<g display="none">
	<g display="inline">
		<path d="M159.48,122.301c-5.936-6.546-18.178-7.592-24.609-1.361c-1.264,1.225,0.663,3.146,1.924,1.924
			c5.396-5.225,15.839-4.065,20.76,1.361C158.736,125.527,160.654,123.598,159.48,122.301L159.48,122.301z"/>
	</g>
</g>
<path opacity="0.35" fill="#FFFFFF" enable-background="new    " d="M159.362,114.92c-0.794,6.431-9.303,13.409-15.409,13.572
	c-6.181,0.166-10.314-0.419-12.987-2.298c-3.745-2.634-4.805-8.149-5.388-11.944c-0.352-2.296-0.682-5.425,1.003-7.642
	c1.587-2.087,8.797-4.525,18.666-2.881C152.642,104.961,160.089,109.033,159.362,114.92z"/>
<path opacity="0.35" fill="#FFFFFF" enable-background="new    " d="M169.218,114.542c0.255,1.578,0.494,3.559,2.004,5.679
	c2.849,3.998,8.48,8.104,13.363,8.185c11.199,0.188,16.495-0.957,18.166-13.987c0.877-7.81,0.542-11.944-17.872-10.859
	C177.392,104,168.34,109.114,169.218,114.542z"/>
<path opacity="0.9" fill="#FFFFFF" enable-background="new    " d="M130.592,108.445c0.339,0.614,1.042,0.075,2.086-0.501
	c1.043-0.577,2.03-0.976,1.691-1.589c-0.34-0.614-1.275-0.366-2.319,0.212C131.007,107.145,130.252,107.831,130.592,108.445z"/>
<path opacity="0.9" fill="#FFFFFF" enable-background="new    " d="M133.67,109.153c0.221,0.402,0.829,0.046,1.513-0.333
	c0.682-0.379,1.181-0.634,0.958-1.033c-0.222-0.402-0.901-0.097-1.586,0.282C133.874,108.447,133.447,108.752,133.67,109.153z"/>
<path opacity="0.9" fill="#FFFFFF" enable-background="new    " d="M174.189,110.449c0.339,0.613,1.042,0.076,2.084-0.5
	c1.045-0.577,2.033-0.977,1.693-1.589c-0.341-0.614-1.276-0.366-2.318,0.211C174.605,109.148,173.85,109.836,174.189,110.449z"/>
<path opacity="0.9" fill="#FFFFFF" enable-background="new    " d="M177.267,111.159c0.223,0.401,0.831,0.044,1.514-0.333
	c0.684-0.379,1.182-0.634,0.959-1.035c-0.222-0.402-0.903-0.096-1.586,0.282C177.472,110.452,177.046,110.756,177.267,111.159z"/>
<path fill="#40220F" d="M172.955,62.736"/>
<path d="M160.319,123.661c0,0.377,0.194,0.503,0.443,0.653c1.852,1.12,3.672,1.262,3.672,1.262s1.929-0.188,3.665-1.203
	c0.505-0.296,0.449-0.712,0.449-0.712l-4.167,0.219L160.319,123.661z"/>
<path fill="#FFECD9" d="M122.834,128.167c0,0-0.619,0.219-0.708,0.25c-1.214,0.432-4.706-0.331-5.384-2.24
	c-0.679-1.907-0.245-3.804,0.969-4.236c0.907-0.323,1.991,0.264,2.765,1.375c-0.194-0.645-0.333-1.318-0.37-2.034
	c-0.497-9.698-4.302-10.836-8.439-8.553c-3.308,1.824-5.732,6.746-4.563,11.975c1.293,5.778,5.939,8.756,10.73,8.548
	c2.332-0.102,5.083-0.375,5.73-1.743C124.03,130.522,122.834,128.167,122.834,128.167z"/>
<path fill="#FFECD9" d="M205.904,128.167c0,0,0.619,0.219,0.708,0.25c1.214,0.432,4.706-0.331,5.384-2.24
	c0.68-1.907,0.246-3.804-0.969-4.236c-0.906-0.323-1.99,0.264-2.765,1.375c0.194-0.645,0.333-1.318,0.37-2.034
	c0.497-9.698,4.302-10.836,8.439-8.553c3.308,1.824,5.731,6.746,4.563,11.975c-1.293,5.778-5.939,8.756-10.73,8.548
	c-2.332-0.102-5.083-0.375-5.73-1.743C204.708,130.522,205.904,128.167,205.904,128.167z"/>
<path fill="#571E1A" d="M154.882,133.217c0,0.304,0.466,0.405,1.066,0.526c4.455,0.903,8.834,1.018,8.834,1.018
	s4.638-0.151,8.815-0.97c1.217-0.239,1.08-0.574,1.08-0.574l-10.022,0.176L154.882,133.217z"/>
</svg>
