<?xml version="1.0" encoding="utf-8"?>
<!-- Generator: Adobe Illustrator 16.0.0, SVG Export Plug-In . SVG Version: 6.00 Build 0)  -->
<!DOCTYPE svg PUBLIC "-//W3C//DTD SVG 1.1//EN" "http://www.w3.org/Graphics/SVG/1.1/DTD/svg11.dtd">
<svg version="1.1" id="图层_1" xmlns="http://www.w3.org/2000/svg" xmlns:xlink="http://www.w3.org/1999/xlink" x="0px" y="0px"
	 width="100px" height="100px" viewBox="0 0 100 100" enable-background="new 0 0 100 100" xml:space="preserve">
<path fill="#662308" d="M85.768,55.047c0,0,7.725-25.08-24.627-33.709c2.467-7.026-4.767-12.869-4.767-12.869
	s0.895,4.615-5.016,8.486c-1.256-2.866-3.288-5.845-2.811-4.417c0.563,3.946-2.131,6.073-5.225,7.762
	c-1.869,0.547-4.243,0.987-6.295,1.597c-12.426,3.682-26.97,13.119-22.815,33.116c-5.63-1.585-15.643,1.803-14.041,12.983
	c1.939,14.296,17.211,8.881,17.211,8.881s7.475,14.615,32.712,14.654C74.966,91.57,82.533,76.86,82.533,76.86
	s15.554,5.739,17.431-9.393C100.829,52.506,85.768,55.047,85.768,55.047z"/>
<path fill="#FFECCA" d="M49.945,45.375c-7.376-18.089-34.301-4.661-21.012,15.306c-14.681,16.695,5.37,28.303,21.164,28.233
	c15.516-0.068,35.749-10.492,21.137-28.44C83.271,44.68,61.214,24.851,49.945,45.375z"/>
<path d="M86.014,49.607c-15.827-1.913-27.123,1.278-30.926,2.052c-4.278,0.871-4.209,0.871-9.149,0.034
	c-9.531-3.409-30.152-2.382-31.377-2.263c-0.888,0.088-1.947,0.698-1.915,1.323c-0.121,0.712,0.939,4.872,0.939,4.872
	s0.722,0.507,0.905,0.66c0.326,0.274,3.294,13.305,5.288,14.852c1.879,1.464,17.462,2.278,20.07,0.974
	c0.363-0.17,0.728-0.507,0.728-0.507c3.276-3.331,5.572-8.878,7.839-11.407c0.64-0.775,2.613-0.715,3.333-0.143
	c0.999,0.882,4.815,9.713,7.913,11.715c0.228,0.145,0.749,0.447,0.873,0.505c1.283,0.582,17.165,1.093,19.774-1.381
	c2.608-2.468,5.287-14.748,5.287-14.748l0.972-0.976l0.838-3.824C87.406,51.346,87.684,50.163,86.014,49.607z M45.817,60.496
	c-0.678,5.947-8.168,10.126-10.56,10.783c-1.948,0.554-9.007,0.696-12.523-1.184c-4.639-2.479-6.053-13.22-4.52-16.212
	c1.722-3.982,19.256-5.495,26.18,2.007C45.854,57.599,46.034,58.6,45.817,60.496z M77.108,70.096
	c-3.512,1.88-10.573,1.737-12.521,1.184c-1.966-0.556-9.652-4.085-10.507-10.922c-0.236-1.896,0.174-2.891,1.634-4.595
	c8.299-7.571,24.457-5.6,25.919-1.878C83.162,56.876,81.748,67.616,77.108,70.096z"/>
<g display="none">
	<g display="inline">
		<path d="M78.725,124.225c4.922-5.43,15.363-6.586,20.76-1.361c1.261,1.225,3.188-0.698,1.925-1.924
			c-6.433-6.229-18.677-5.185-24.609,1.361C75.624,123.598,77.543,125.527,78.725,124.225L78.725,124.225z"/>
	</g>
</g>
<g display="none">
	<g display="inline">
		<path d="M159.48,122.301c-5.937-6.546-18.178-7.592-24.609-1.361c-1.264,1.226,0.663,3.146,1.924,1.924
			c5.396-5.225,15.839-4.064,20.76,1.361C158.736,125.527,160.654,123.598,159.48,122.301L159.48,122.301z"/>
	</g>
</g>
<path opacity="0.35" fill="#FFFFFF" enable-background="new    " d="M45.869,60.358c-0.66,5.356-7.75,11.169-12.836,11.305
	c-5.148,0.141-8.592-0.348-10.817-1.914c-3.12-2.191-4.002-6.788-4.489-9.947c-0.292-1.914-0.568-4.521,0.836-6.368
	c1.322-1.736,7.328-3.769,15.549-2.398C40.271,52.062,46.475,55.451,45.869,60.358z"/>
<path opacity="0.35" fill="#FFFFFF" enable-background="new    " d="M54.08,60.042c0.21,1.314,0.41,2.965,1.668,4.731
	c2.374,3.33,7.064,6.75,11.132,6.817c9.33,0.155,13.743-0.798,15.135-11.651c0.729-6.507,0.451-9.953-14.889-9.046
	C60.89,51.26,53.349,55.521,54.08,60.042z"/>
<path opacity="0.9" fill="#FFFFFF" enable-background="new    " d="M21.903,54.963c0.283,0.513,0.868,0.064,1.738-0.416
	c0.868-0.48,1.69-0.813,1.409-1.324c-0.284-0.511-1.063-0.306-1.933,0.179C22.25,53.878,21.621,54.45,21.903,54.963z"/>
<path opacity="0.9" fill="#FFFFFF" enable-background="new    " d="M24.465,55.555c0.186,0.333,0.691,0.038,1.261-0.277
	c0.569-0.316,0.984-0.527,0.798-0.861c-0.185-0.336-0.75-0.08-1.321,0.236C24.637,54.964,24.281,55.218,24.465,55.555z"/>
<path opacity="0.9" fill="#FFFFFF" enable-background="new    " d="M58.222,56.634c0.282,0.512,0.868,0.063,1.735-0.417
	c0.869-0.481,1.694-0.813,1.411-1.324c-0.285-0.511-1.064-0.304-1.932,0.177C58.567,55.548,57.937,56.122,58.222,56.634z"/>
<path opacity="0.9" fill="#FFFFFF" enable-background="new    " d="M60.784,57.225c0.185,0.335,0.691,0.034,1.261-0.275
	c0.571-0.318,0.985-0.53,0.798-0.864c-0.186-0.335-0.752-0.08-1.319,0.235C60.954,56.635,60.602,56.888,60.784,57.225z"/>
<path fill="#40220F" d="M57.193,16.887"/>
<path d="M46.667,67.639c0,0.313,0.163,0.42,0.369,0.545c1.542,0.933,3.059,1.053,3.059,1.053s1.608-0.156,3.054-1.004
	c0.419-0.245,0.375-0.594,0.375-0.594l-3.473,0.184L46.667,67.639z"/>
<path fill="#FFECCA" d="M15.44,71.394c0,0-0.516,0.182-0.59,0.208c-1.012,0.358-3.92-0.274-4.485-1.866
	c-0.566-1.589-0.204-3.168,0.807-3.53c0.755-0.269,1.659,0.221,2.306,1.147c-0.163-0.538-0.279-1.1-0.31-1.696
	c-0.414-8.078-3.583-9.025-7.03-7.122c-2.754,1.519-4.774,5.619-3.801,9.973c1.077,4.815,4.947,7.294,8.938,7.121
	c1.941-0.084,4.234-0.313,4.774-1.45C16.437,73.354,15.44,71.394,15.44,71.394z"/>
<path fill="#FFECCA" d="M84.64,71.394c0,0,0.519,0.182,0.59,0.208c1.013,0.358,3.921-0.274,4.485-1.866
	c0.567-1.589,0.205-3.168-0.806-3.53c-0.757-0.269-1.66,0.221-2.305,1.147c0.162-0.538,0.275-1.1,0.31-1.696
	c0.412-8.078,3.582-9.025,7.029-7.122c2.757,1.519,4.772,5.619,3.801,9.973c-1.079,4.815-4.947,7.294-8.937,7.121
	c-1.943-0.084-4.235-0.313-4.775-1.45C83.644,73.354,84.64,71.394,84.64,71.394z"/>
</svg>
