<svg xmlns="http://www.w3.org/2000/svg" viewBox="0 0 100 100" width="80" height="80">
  <path fill="#662308" d="M82.2 54.5s7-22.6-22.2-30.3c2.2-6.3-4.3-11.6-4.3-11.6s.8 4.2-4.5 7.6c-1.1-2.6-3-5.3-2.5-4 .5 3.6-1.9 5.5-4.7 7-1.7.5-3.8.9-5.7 1.4C27.1 28 14.1 36.5 17.8 54.5c-5.1-1.4-14.1 1.6-12.6 11.7 1.7 12.9 15.5 8 15.5 8s6.7 13.2 29.4 13.2c22.4 0 29.2-13.2 29.2-13.2s14 5.2 15.7-8.5c.7-13.4-12.8-11.2-12.8-11.2z"/>
  <path fill="#FFECCA" d="M49.9 45.8C43.3 29.6 19 41.6 31 59.6c-13.2 15 4.8 25.5 19 25.4 14-.1 32.2-9.4 19-25.6 10.9-14.2-9-32-19.1-13.6z"/>
  <path d="M82.4 49.6c-14.2-1.7-24.4 1.2-27.8 1.8-3.9.8-3.8.8-8.2 0-8.6-3.1-27.1-2.1-28.2-2-.8.1-1.8.6-1.7 1.2-.1.6.8 4.4.8 4.4s.6.5.8.6c.3.2 3 12 4.8 13.4 1.7 1.3 15.7 2.1 18.1.9.3-.2.7-.5.7-.5 2.9-3 5-8 7.1-10.3.6-.7 2.4-.6 3-.1.9.8 4.3 8.7 7.1 10.5.2.1.7.4.8.5 1.2.5 15.4 1 17.8-1.2 2.3-2.2 4.8-13.3 4.8-13.3l.9-.9.8-3.4c-.4 0-.1-1.1-1.6-1.6zm-36.2 9.8c-.6 5.4-7.4 9.1-9.5 9.7-1.8.5-8.1.6-11.3-1.1-4.2-2.2-5.4-11.9-4.1-14.6 1.5-3.6 17.3-4.9 23.6 1.8 1.3 1.6 1.5 2.5 1.3 4.2zm28.2 8.7c-3.2 1.7-9.5 1.6-11.3 1.1-1.8-.5-8.7-3.7-9.5-9.8-.2-1.7.2-2.6 1.5-4.1 7.5-6.8 22-5 23.3-1.7 1.4 2.6.1 12.3-4 14.5z"/>
  <path opacity=".35" fill="#FFF" d="M46.4 59.3c-.6 4.8-7 10.1-11.6 10.2-4.6.1-7.7-.3-9.7-1.7-2.8-2-3.6-6.1-4-9-.3-1.7-.5-4.1.8-5.7 1.2-1.6 6.6-3.4 14-2.2 5.5 1 11.1 4 10.5 8.4zm7.4-.3c.2 1.2.4 2.7 1.5 4.3 2.1 3 6.4 6.1 10 6.1 8.4.1 12.4-.7 13.6-10.5.7-5.9.4-9-13.4-8.1-5.6.3-12.4 4.2-11.7 8.2z"/>
  <path opacity=".9" fill="#FFF" d="M31.6 54.5c.3.5.8.1 1.6-.4.8-.4 1.5-.7 1.3-1.2-.3-.5-1-.3-1.7.2-.9.4-1.5.9-1.2 1.4zm2.3.5c.2.3.6 0 1.1-.2.5-.3.9-.5.7-.8-.2-.3-.7-.1-1.2.2-.5.3-.8.5-.6.8zm30.4 1c.3.5.8.1 1.6-.4.8-.4 1.5-.7 1.3-1.2-.3-.5-1-.3-1.7.2-.9.4-1.5.9-1.2 1.4zm2.3.5c.2.3.6 0 1.1-.2.5-.3.9-.5.7-.8-.2-.3-.7-.1-1.2.2-.5.3-.8.5-.6.8z"/>
  <path d="M46.9 65.9c0 .3.1.4.3.5 1.4.8 2.8.9 2.8.9s1.4-.1 2.7-.9c.4-.2.3-.5.3-.5l-3 .1-3.1-.1z"/>
  <path fill="#FFECCA" d="M18.9 69.3l-.5.2c-.9.3-3.5-.2-4-1.7-.5-1.4-.2-2.9.7-3.2.7-.2 1.5.2 2.1 1-.1-.5-.3-1-.3-1.5-.4-7.3-3.2-8.1-6.3-6.4-2.5 1.4-4.3 5.1-3.4 9 1 4.3 4.5 6.6 8 6.4 1.7-.1 3.8-.3 4.3-1.3.3-.8-.6-2.5-.6-2.5zm62.2 0l.5.2c.9.3 3.5-.2 4-1.7.5-1.4.2-2.9-.7-3.2-.7-.2-1.5.2-2.1 1l.3-1.5c.4-7.3 3.2-8.1 6.3-6.4 2.5 1.4 4.3 5.1 3.4 9-1 4.3-4.5 6.6-8 6.4-1.7-.1-3.8-.3-4.3-1.3-.3-.8.6-2.5.6-2.5z"/>
</svg>
