<svg xmlns="http://www.w3.org/2000/svg" viewBox="0 0 93 93"><circle fill="#FF7000" cx="46.5" cy="46.5" r="44.5"/><path d="M46.5 93C20.9 93 0 72.1 0 46.5S20.9 0 46.5 0 93 20.9 93 46.5 72.1 93 46.5 93zm0-89C23.1 4 4 23.1 4 46.5S23.1 89 46.5 89 89 69.9 89 46.5 69.9 4 46.5 4z"/><g><path d="M66.9 69.6c-1.6 1.8-4.1 2.6-7.4 2.2-3.8-.5-7.2-1.8-10.3-3.9C48 67 46.9 66 46 65.2c0 1.4-.3 2.6-1 3.7-.9 1.3-2.1 1.9-3.7 2-1.9-.1-3.5-.8-4.8-2.1-2.1-1.2-4.3-2.8-6.6-4.8.1 2.8-.1 4.5-.6 5.1-.6.7-1.6 1-3.1 1-1.6 0-2.8-1-3.3-3-.5-1.7-.6-3.5-.3-5.4.3-1.5.4-2.8.4-3.8 0-.9.2-2.4.4-4.4.2-2 .3-4.3.2-6.7 0-.7-.3-1.2-.9-1.3-.9-.1-1.4-.5-1.4-1.3s.3-1.3.8-1.7c.6-.4 1.3-.6 2.1-.6 1 0 2.1.4 3.2 1.3l.8.8c1.4-1.3 2.8-2.3 4.1-2.8-3.9.5-6.7.4-8.4-.3-2.1-1-3.1-2-3.1-3.1 0-.8.5-1.3 1.4-1.5 1.1-.2 3-.6 5.6-1.3-.9-.5-1.9-1.2-2.8-2.1-1.7-1.8-2.5-3.7-2.5-5.7 0-1.9.4-3.3 1.3-4.3.8-.9 1.8-1.4 3.1-1.4 1 0 1.9.4 2.7 1.3.9.9 1.2 2 1.1 3.3-.1.9-.2 1.5-.2 2 0 .4.1.7.3.8.3.2.7.2 1.2-.1 3-1.5 6.9-3.5 11.8-6 3.8-2 7.3-3 10.7-3 2.3.1 4.5.6 6.7 1.5S65 23.4 66 25c1 1.3 1.5 2.8 1.4 4.3-.1.6-.5 1.4-1.1 2.3 2.8 1.3 4.2 2.9 4.2 4.6 0 1.6-.5 2.7-1.4 3.4-1 .9-2.6.9-4.9-.1-3.1-.9-6.9-1.3-11.3-1.2-3.8 0-8.4.6-13.8 1.6.9.1 1.8.5 2.7 1 1.4.9 2.4 2.2 3.1 4 .5 1.3.7 2.4.7 3.1 0 .4.1 2.2.1 5.3.1 2.4.2 4.6.2 6.7 2 .9 4.5 1.9 7.5 3 2.6.8 4.3.9 5.2.3.3-.4.4-1.7.4-3.8v-8c0-2.7 0-4.7.1-5.9 0-.9-.1-1.4-.4-1.5-.4-.3-.8-.2-1.3.2-.9.8-1.8 1.7-2.7 2.6-.4.3-.7.5-1 .7 0 .1.1.3.1.5 0 1.8.1 3.5.2 5.2.3 3.1.2 5-.3 5.7-.6.7-1.6 1.1-3 1.1-1.6 0-2.7-.9-3.3-2.8-.3-1-.4-2.1-.3-3.3.2-.9.3-1.7.3-2.3 0-.6.1-1.5.2-2.7.1-1.3.1-2.7.1-4.2 0-.8-.3-1.2-.9-1.2-.9-.1-1.3-.5-1.4-1.2 0-.8.2-1.3.7-1.7.5-.4 1.2-.7 2-.7 1 0 2 .3 3.1 1.1.7.5 1.2 1 1.5 1.7l.3-.3c1.2-1.1 2.6-1.9 4-2.4 1.5-.4 2.8-.5 3.7-.2 2.1 0 4 1.4 5.6 4 1.2 1.9 1.7 4.7 1.7 8.6v10.6c.2 3.1-.2 5.2-1.1 6.5zM35.1 58.7c-.7-.4-1.2-1.1-1.7-2.1-.4-.7-1-1.3-1.7-1.9-.5-.4-1.1-.7-1.8-.7-.1 2.3-.1 4.5-.1 6.7 1.4.4 2.8.9 4.4 1.3 1.9.5 3.1.5 3.6.2.2-.1.3-.6.3-1.4 0-.7.1-1.4.1-2.2-.2.1-.4.2-.7.3-.9.2-1.7.1-2.4-.2zm.7-7.5c.9.4 1.7 1 2.2 1.6 0-1.6.1-3.1.1-4.5.1-1.6-.1-2.5-.4-2.6-.6-.3-1.4 0-2.4 1-2 1.7-3.6 2.6-5 2.6-.2 0-.3 0-.3.1v1.7c.1-.1.3-.1.6-.2 1.9-.5 3.7-.4 5.2.3zm12-25.5C45 27 42.3 28.8 39.5 31c-.4.3-.8.5-1 .9 3.7-.9 7.3-1.5 10.7-1.8 1.9-1.1 3.8-2.4 6-3.7.8-.5 1.1-.9.9-1.3-.6-.7-1.3-1-2.1-1-2 0-4 .5-6.2 1.6z"/></g></svg>
